<svg width="2673" height="3780" viewBox="0 0 2673 3780" fill="none" xmlns="http://www.w3.org/2000/svg">
<g clip-path="url(#clip0_13_67)">
<rect width="2673" height="3780" fill="#EFDDC1"/>
<g filter="url(#filter0_d_13_67)">
<path d="M207 180C207 175.029 211.029 171 216 171H2457C2461.97 171 2466 175.029 2466 180V1440C2466 1444.97 2461.97 1449 2457 1449H216C211.03 1449 207 1444.97 207 1440V180Z" stroke="#75462C" stroke-width="18" shape-rendering="crispEdges"/>
</g>
<g filter="url(#filter1_dd_13_67)">
<path fill-rule="evenodd" clip-rule="evenodd" d="M2718 -72C2718 -86.9117 2705.91 -99 2691 -99H-18C-32.9117 -99 -45 -86.9118 -45 -72.0001V3852C-45 3866.91 -32.9116 3879 -18 3879H2691C2705.91 3879 2718 3866.91 2718 3852V-72ZM2610 99C2610 84.0883 2597.91 72 2583 72H90C75.0883 72 63 84.0883 63 99V707.816C63 715.562 66.3274 722.936 72.1362 728.061L130.364 779.439C136.173 784.564 139.5 791.937 139.5 799.684V2984.26C139.5 2992.33 135.892 2999.97 129.664 3005.1L72.8359 3051.9C66.608 3057.03 63 3064.67 63 3072.74V3681C63 3695.91 75.0883 3708 89.9999 3708H2583C2597.91 3708 2610 3695.91 2610 3681V3069.04C2610 3060.97 2606.39 3053.32 2600.16 3048.19L2547.84 3005.1C2541.61 2999.97 2538 2992.33 2538 2984.26V799.684C2538 791.937 2541.33 784.564 2547.14 779.439L2600.86 732.032C2606.67 726.907 2610 719.533 2610 711.786V99Z" fill="url(#paint0_radial_13_67)"/>
</g>
<g filter="url(#filter2_d_13_67)">
<path d="M51.75 1702.13C51.75 1690.94 60.8162 1681.88 72 1681.88C83.1838 1681.88 92.25 1690.94 92.25 1702.13C92.25 1713.31 83.1838 1722.38 72 1722.38C60.8162 1722.38 51.75 1713.31 51.75 1702.13Z" fill="url(#paint1_linear_13_67)" shape-rendering="crispEdges"/>
<path d="M53.7749 1616.4C53.7749 1606.33 61.9346 1598.17 71.9999 1598.17C82.0653 1598.17 90.2249 1606.33 90.2249 1616.4C90.2249 1626.47 82.0653 1634.62 71.9999 1634.62C61.9346 1634.62 53.7749 1626.47 53.7749 1616.4Z" fill="url(#paint2_linear_13_67)" shape-rendering="crispEdges"/>
<path d="M55.7999 1534.72C55.7999 1525.78 63.0529 1518.52 71.9999 1518.52C80.9469 1518.52 88.1999 1525.78 88.1999 1534.72C88.1999 1543.67 80.9469 1550.92 71.9999 1550.92C63.0529 1550.92 55.7999 1543.67 55.7999 1534.72Z" fill="url(#paint3_linear_13_67)" shape-rendering="crispEdges"/>
<path d="M57.8251 1457.1C57.8251 1449.27 64.1715 1442.92 72.0001 1442.92C79.8287 1442.92 86.1751 1449.27 86.1751 1457.1C86.1751 1464.93 79.8287 1471.27 72.0001 1471.27C64.1715 1471.27 57.8251 1464.93 57.8251 1457.1Z" fill="url(#paint4_linear_13_67)" shape-rendering="crispEdges"/>
<path d="M59.8501 1383.52C59.8501 1376.81 65.2898 1371.37 72.0001 1371.37C78.7103 1371.37 84.1501 1376.81 84.1501 1383.52C84.1501 1390.24 78.7103 1395.67 72.0001 1395.67C65.2898 1395.67 59.8501 1390.24 59.8501 1383.52Z" fill="url(#paint5_linear_13_67)" shape-rendering="crispEdges"/>
<path d="M64.71 1316.83C64.71 1312.81 67.9738 1309.54 72 1309.54C76.0261 1309.54 79.29 1312.81 79.29 1316.83C79.29 1320.86 76.0261 1324.12 72 1324.12C67.9738 1324.12 64.71 1320.86 64.71 1316.83Z" fill="url(#paint6_linear_13_67)" shape-rendering="crispEdges"/>
</g>
<g filter="url(#filter3_d_13_67)">
<path d="M92.25 2086.88C92.25 2098.06 83.1838 2107.12 72 2107.12C60.8162 2107.12 51.75 2098.06 51.75 2086.88C51.75 2075.69 60.8162 2066.62 72 2066.62C83.1838 2066.62 92.25 2075.69 92.25 2086.88Z" fill="url(#paint7_linear_13_67)"/>
<path d="M90.2251 2172.6C90.2251 2182.67 82.0654 2190.83 72.0001 2190.83C61.9347 2190.83 53.7751 2182.67 53.7751 2172.6C53.7751 2162.53 61.9347 2154.38 72.0001 2154.38C82.0654 2154.38 90.2251 2162.53 90.2251 2172.6Z" fill="url(#paint8_linear_13_67)"/>
<path d="M88.2001 2254.28C88.2001 2263.22 80.9471 2270.48 72.0001 2270.48C63.0531 2270.48 55.8001 2263.22 55.8001 2254.28C55.8001 2245.33 63.0531 2238.08 72.0001 2238.08C80.9471 2238.08 88.2001 2245.33 88.2001 2254.28Z" fill="url(#paint9_linear_13_67)"/>
<path d="M86.1749 2331.9C86.1749 2339.73 79.8285 2346.08 71.9999 2346.08C64.1713 2346.08 57.8249 2339.73 57.8249 2331.9C57.8249 2324.07 64.1713 2317.73 71.9999 2317.73C79.8285 2317.73 86.1749 2324.07 86.1749 2331.9Z" fill="url(#paint10_linear_13_67)"/>
<path d="M84.1499 2405.48C84.1499 2412.19 78.7102 2417.63 71.9999 2417.63C65.2897 2417.63 59.8499 2412.19 59.8499 2405.48C59.8499 2398.76 65.2897 2393.33 71.9999 2393.33C78.7102 2393.33 84.1499 2398.76 84.1499 2405.48Z" fill="url(#paint11_linear_13_67)"/>
<path d="M79.29 2472.17C79.29 2476.19 76.0262 2479.46 72 2479.46C67.9739 2479.46 64.71 2476.19 64.71 2472.17C64.71 2468.14 67.9739 2464.88 72 2464.88C76.0262 2464.88 79.29 2468.14 79.29 2472.17Z" fill="url(#paint12_linear_13_67)"/>
</g>
<path d="M72 1513.12V2275.88" stroke="url(#paint13_linear_13_67)" stroke-width="13.5"/>
<g filter="url(#filter4_d_13_67)">
<path d="M72 1857.38L112.5 1897.88L72 1938.38L31.5 1897.88L72 1857.38Z" fill="#75462C"/>
</g>
<g filter="url(#filter5_d_13_67)">
<path d="M2580.75 1701C2580.75 1689.82 2589.82 1680.75 2601 1680.75C2612.18 1680.75 2621.25 1689.82 2621.25 1701C2621.25 1712.18 2612.18 1721.25 2601 1721.25C2589.82 1721.25 2580.75 1712.18 2580.75 1701Z" fill="url(#paint14_linear_13_67)" shape-rendering="crispEdges"/>
<path d="M2582.77 1615.27C2582.77 1605.21 2590.93 1597.05 2601 1597.05C2611.07 1597.05 2619.22 1605.21 2619.22 1615.27C2619.22 1625.34 2611.07 1633.5 2601 1633.5C2590.93 1633.5 2582.77 1625.34 2582.77 1615.27Z" fill="url(#paint15_linear_13_67)" shape-rendering="crispEdges"/>
<path d="M2584.8 1533.6C2584.8 1524.65 2592.05 1517.4 2601 1517.4C2609.95 1517.4 2617.2 1524.65 2617.2 1533.6C2617.2 1542.55 2609.95 1549.8 2601 1549.8C2592.05 1549.8 2584.8 1542.55 2584.8 1533.6Z" fill="url(#paint16_linear_13_67)" shape-rendering="crispEdges"/>
<path d="M2586.82 1455.97C2586.82 1448.15 2593.17 1441.8 2601 1441.8C2608.83 1441.8 2615.17 1448.15 2615.17 1455.97C2615.17 1463.8 2608.83 1470.15 2601 1470.15C2593.17 1470.15 2586.82 1463.8 2586.82 1455.97Z" fill="url(#paint17_linear_13_67)" shape-rendering="crispEdges"/>
<path d="M2588.85 1382.4C2588.85 1375.69 2594.29 1370.25 2601 1370.25C2607.71 1370.25 2613.15 1375.69 2613.15 1382.4C2613.15 1389.11 2607.71 1394.55 2601 1394.55C2594.29 1394.55 2588.85 1389.11 2588.85 1382.4Z" fill="url(#paint18_linear_13_67)" shape-rendering="crispEdges"/>
<path d="M2593.71 1315.71C2593.71 1311.68 2596.97 1308.42 2601 1308.42C2605.03 1308.42 2608.29 1311.68 2608.29 1315.71C2608.29 1319.74 2605.03 1323 2601 1323C2596.97 1323 2593.71 1319.74 2593.71 1315.71Z" fill="url(#paint19_linear_13_67)" shape-rendering="crispEdges"/>
</g>
<g filter="url(#filter6_d_13_67)">
<path d="M2621.25 2085.75C2621.25 2096.93 2612.18 2106 2601 2106C2589.82 2106 2580.75 2096.93 2580.75 2085.75C2580.75 2074.57 2589.82 2065.5 2601 2065.5C2612.18 2065.5 2621.25 2074.57 2621.25 2085.75Z" fill="url(#paint20_linear_13_67)"/>
<path d="M2619.23 2171.48C2619.23 2181.54 2611.07 2189.7 2601 2189.7C2590.93 2189.7 2582.78 2181.54 2582.78 2171.48C2582.78 2161.41 2590.93 2153.25 2601 2153.25C2611.07 2153.25 2619.23 2161.41 2619.23 2171.48Z" fill="url(#paint21_linear_13_67)"/>
<path d="M2617.2 2253.15C2617.2 2262.1 2609.95 2269.35 2601 2269.35C2592.05 2269.35 2584.8 2262.1 2584.8 2253.15C2584.8 2244.2 2592.05 2236.95 2601 2236.95C2609.95 2236.95 2617.2 2244.2 2617.2 2253.15Z" fill="url(#paint22_linear_13_67)"/>
<path d="M2615.18 2330.78C2615.18 2338.6 2608.83 2344.95 2601 2344.95C2593.17 2344.95 2586.83 2338.6 2586.83 2330.78C2586.83 2322.95 2593.17 2316.6 2601 2316.6C2608.83 2316.6 2615.18 2322.95 2615.18 2330.78Z" fill="url(#paint23_linear_13_67)"/>
<path d="M2613.15 2404.35C2613.15 2411.06 2607.71 2416.5 2601 2416.5C2594.29 2416.5 2588.85 2411.06 2588.85 2404.35C2588.85 2397.64 2594.29 2392.2 2601 2392.2C2607.71 2392.2 2613.15 2397.64 2613.15 2404.35Z" fill="url(#paint24_linear_13_67)"/>
<path d="M2608.29 2471.04C2608.29 2475.07 2605.03 2478.33 2601 2478.33C2596.97 2478.33 2593.71 2475.07 2593.71 2471.04C2593.71 2467.01 2596.97 2463.75 2601 2463.75C2605.03 2463.75 2608.29 2467.01 2608.29 2471.04Z" fill="url(#paint25_linear_13_67)"/>
</g>
<line x1="2601" y1="1512" x2="2601" y2="2274.75" stroke="url(#paint26_linear_13_67)" stroke-width="13.5"/>
<g filter="url(#filter7_d_13_67)">
<path d="M2601 1856.25L2641.5 1896.75L2601 1937.25L2560.5 1896.75L2601 1856.25Z" fill="#75462C"/>
</g>
<g style="mix-blend-mode:hue">
<rect width="2673" height="3780" fill="white"/>
</g>
</g>
<defs>
<filter id="filter0_d_13_67" x="198" y="162" width="2277" height="1314" filterUnits="userSpaceOnUse" color-interpolation-filters="sRGB">
<feFlood flood-opacity="0" result="BackgroundImageFix"/>
<feColorMatrix in="SourceAlpha" type="matrix" values="0 0 0 0 0 0 0 0 0 0 0 0 0 0 0 0 0 0 127 0" result="hardAlpha"/>
<feOffset dy="18"/>
<feComposite in2="hardAlpha" operator="out"/>
<feColorMatrix type="matrix" values="0 0 0 0 0.458333 0 0 0 0 0.276222 0 0 0 0 0.173785 0 0 0 0.2 0"/>
<feBlend mode="normal" in2="BackgroundImageFix" result="effect1_dropShadow_13_67"/>
<feBlend mode="normal" in="SourceGraphic" in2="effect1_dropShadow_13_67" result="shape"/>
</filter>
<filter id="filter1_dd_13_67" x="-45" y="-126" width="2763" height="4032" filterUnits="userSpaceOnUse" color-interpolation-filters="sRGB">
<feFlood flood-opacity="0" result="BackgroundImageFix"/>
<feColorMatrix in="SourceAlpha" type="matrix" values="0 0 0 0 0 0 0 0 0 0 0 0 0 0 0 0 0 0 127 0" result="hardAlpha"/>
<feOffset dy="27"/>
<feComposite in2="hardAlpha" operator="out"/>
<feColorMatrix type="matrix" values="0 0 0 0 0.495833 0 0 0 0 0.14875 0 0 0 0 0 0 0 0 0.53 0"/>
<feBlend mode="normal" in2="BackgroundImageFix" result="effect1_dropShadow_13_67"/>
<feColorMatrix in="SourceAlpha" type="matrix" values="0 0 0 0 0 0 0 0 0 0 0 0 0 0 0 0 0 0 127 0" result="hardAlpha"/>
<feOffset dy="-27"/>
<feComposite in2="hardAlpha" operator="out"/>
<feColorMatrix type="matrix" values="0 0 0 0 0.701961 0 0 0 0 0.486275 0 0 0 0 0.356863 0 0 0 1 0"/>
<feBlend mode="normal" in2="effect1_dropShadow_13_67" result="effect2_dropShadow_13_67"/>
<feBlend mode="normal" in="SourceGraphic" in2="effect2_dropShadow_13_67" result="shape"/>
</filter>
<filter id="filter2_d_13_67" x="51.75" y="1309.54" width="40.5" height="426.33" filterUnits="userSpaceOnUse" color-interpolation-filters="sRGB">
<feFlood flood-opacity="0" result="BackgroundImageFix"/>
<feColorMatrix in="SourceAlpha" type="matrix" values="0 0 0 0 0 0 0 0 0 0 0 0 0 0 0 0 0 0 127 0" result="hardAlpha"/>
<feOffset dy="13.5"/>
<feComposite in2="hardAlpha" operator="out"/>
<feColorMatrix type="matrix" values="0 0 0 0 0.458333 0 0 0 0 0.276222 0 0 0 0 0.173785 0 0 0 0.2 0"/>
<feBlend mode="normal" in2="BackgroundImageFix" result="effect1_dropShadow_13_67"/>
<feBlend mode="normal" in="SourceGraphic" in2="effect1_dropShadow_13_67" result="shape"/>
</filter>
<filter id="filter3_d_13_67" x="51.75" y="2066.62" width="40.5" height="422.955" filterUnits="userSpaceOnUse" color-interpolation-filters="sRGB">
<feFlood flood-opacity="0" result="BackgroundImageFix"/>
<feColorMatrix in="SourceAlpha" type="matrix" values="0 0 0 0 0 0 0 0 0 0 0 0 0 0 0 0 0 0 127 0" result="hardAlpha"/>
<feOffset dy="10.125"/>
<feComposite in2="hardAlpha" operator="out"/>
<feColorMatrix type="matrix" values="0 0 0 0 0.458333 0 0 0 0 0.276222 0 0 0 0 0.173785 0 0 0 0.2 0"/>
<feBlend mode="normal" in2="BackgroundImageFix" result="effect1_dropShadow_13_67"/>
<feBlend mode="normal" in="SourceGraphic" in2="effect1_dropShadow_13_67" result="shape"/>
</filter>
<filter id="filter4_d_13_67" x="31.5" y="1857.38" width="81" height="94.5" filterUnits="userSpaceOnUse" color-interpolation-filters="sRGB">
<feFlood flood-opacity="0" result="BackgroundImageFix"/>
<feColorMatrix in="SourceAlpha" type="matrix" values="0 0 0 0 0 0 0 0 0 0 0 0 0 0 0 0 0 0 127 0" result="hardAlpha"/>
<feOffset dy="13.5"/>
<feComposite in2="hardAlpha" operator="out"/>
<feColorMatrix type="matrix" values="0 0 0 0 0.458333 0 0 0 0 0.276222 0 0 0 0 0.173785 0 0 0 0.2 0"/>
<feBlend mode="normal" in2="BackgroundImageFix" result="effect1_dropShadow_13_67"/>
<feBlend mode="normal" in="SourceGraphic" in2="effect1_dropShadow_13_67" result="shape"/>
</filter>
<filter id="filter5_d_13_67" x="2580.75" y="1308.42" width="40.5" height="426.33" filterUnits="userSpaceOnUse" color-interpolation-filters="sRGB">
<feFlood flood-opacity="0" result="BackgroundImageFix"/>
<feColorMatrix in="SourceAlpha" type="matrix" values="0 0 0 0 0 0 0 0 0 0 0 0 0 0 0 0 0 0 127 0" result="hardAlpha"/>
<feOffset dy="13.5"/>
<feComposite in2="hardAlpha" operator="out"/>
<feColorMatrix type="matrix" values="0 0 0 0 0.458333 0 0 0 0 0.276222 0 0 0 0 0.173785 0 0 0 0.2 0"/>
<feBlend mode="normal" in2="BackgroundImageFix" result="effect1_dropShadow_13_67"/>
<feBlend mode="normal" in="SourceGraphic" in2="effect1_dropShadow_13_67" result="shape"/>
</filter>
<filter id="filter6_d_13_67" x="2580.75" y="2065.5" width="40.5" height="422.955" filterUnits="userSpaceOnUse" color-interpolation-filters="sRGB">
<feFlood flood-opacity="0" result="BackgroundImageFix"/>
<feColorMatrix in="SourceAlpha" type="matrix" values="0 0 0 0 0 0 0 0 0 0 0 0 0 0 0 0 0 0 127 0" result="hardAlpha"/>
<feOffset dy="10.125"/>
<feComposite in2="hardAlpha" operator="out"/>
<feColorMatrix type="matrix" values="0 0 0 0 0.458333 0 0 0 0 0.276222 0 0 0 0 0.173785 0 0 0 0.2 0"/>
<feBlend mode="normal" in2="BackgroundImageFix" result="effect1_dropShadow_13_67"/>
<feBlend mode="normal" in="SourceGraphic" in2="effect1_dropShadow_13_67" result="shape"/>
</filter>
<filter id="filter7_d_13_67" x="2560.5" y="1856.25" width="81" height="94.5" filterUnits="userSpaceOnUse" color-interpolation-filters="sRGB">
<feFlood flood-opacity="0" result="BackgroundImageFix"/>
<feColorMatrix in="SourceAlpha" type="matrix" values="0 0 0 0 0 0 0 0 0 0 0 0 0 0 0 0 0 0 127 0" result="hardAlpha"/>
<feOffset dy="13.5"/>
<feComposite in2="hardAlpha" operator="out"/>
<feColorMatrix type="matrix" values="0 0 0 0 0.458333 0 0 0 0 0.276222 0 0 0 0 0.173785 0 0 0 0.2 0"/>
<feBlend mode="normal" in2="BackgroundImageFix" result="effect1_dropShadow_13_67"/>
<feBlend mode="normal" in="SourceGraphic" in2="effect1_dropShadow_13_67" result="shape"/>
</filter>
<radialGradient id="paint0_radial_13_67" cx="0" cy="0" r="1" gradientUnits="userSpaceOnUse" gradientTransform="translate(1336.5 1890) rotate(89.9213) scale(3276 8480.86)">
<stop offset="0.305" stop-color="#FFC480"/>
<stop offset="1" stop-color="#3D2100"/>
</radialGradient>
<linearGradient id="paint1_linear_13_67" x1="72" y1="1324.12" x2="72" y2="1309.54" gradientUnits="userSpaceOnUse">
<stop stop-color="#381C0B"/>
<stop offset="1" stop-color="#9E4E20" stop-opacity="0.56"/>
</linearGradient>
<linearGradient id="paint2_linear_13_67" x1="72" y1="1324.12" x2="72" y2="1309.54" gradientUnits="userSpaceOnUse">
<stop stop-color="#381C0B"/>
<stop offset="1" stop-color="#9E4E20" stop-opacity="0.56"/>
</linearGradient>
<linearGradient id="paint3_linear_13_67" x1="72" y1="1324.12" x2="72" y2="1309.54" gradientUnits="userSpaceOnUse">
<stop stop-color="#381C0B"/>
<stop offset="1" stop-color="#9E4E20" stop-opacity="0.56"/>
</linearGradient>
<linearGradient id="paint4_linear_13_67" x1="72" y1="1324.12" x2="72" y2="1309.54" gradientUnits="userSpaceOnUse">
<stop stop-color="#381C0B"/>
<stop offset="1" stop-color="#9E4E20" stop-opacity="0.56"/>
</linearGradient>
<linearGradient id="paint5_linear_13_67" x1="72" y1="1324.12" x2="72" y2="1309.54" gradientUnits="userSpaceOnUse">
<stop stop-color="#381C0B"/>
<stop offset="1" stop-color="#9E4E20" stop-opacity="0.56"/>
</linearGradient>
<linearGradient id="paint6_linear_13_67" x1="72" y1="1324.12" x2="72" y2="1309.54" gradientUnits="userSpaceOnUse">
<stop stop-color="#381C0B"/>
<stop offset="1" stop-color="#9E4E20" stop-opacity="0.56"/>
</linearGradient>
<linearGradient id="paint7_linear_13_67" x1="72" y1="2464.88" x2="72" y2="2479.46" gradientUnits="userSpaceOnUse">
<stop stop-color="#381C0B"/>
<stop offset="1" stop-color="#9E4E20" stop-opacity="0.56"/>
</linearGradient>
<linearGradient id="paint8_linear_13_67" x1="72" y1="2464.88" x2="72" y2="2479.46" gradientUnits="userSpaceOnUse">
<stop stop-color="#381C0B"/>
<stop offset="1" stop-color="#9E4E20" stop-opacity="0.56"/>
</linearGradient>
<linearGradient id="paint9_linear_13_67" x1="72" y1="2464.88" x2="72" y2="2479.46" gradientUnits="userSpaceOnUse">
<stop stop-color="#381C0B"/>
<stop offset="1" stop-color="#9E4E20" stop-opacity="0.56"/>
</linearGradient>
<linearGradient id="paint10_linear_13_67" x1="72" y1="2464.88" x2="72" y2="2479.46" gradientUnits="userSpaceOnUse">
<stop stop-color="#381C0B"/>
<stop offset="1" stop-color="#9E4E20" stop-opacity="0.56"/>
</linearGradient>
<linearGradient id="paint11_linear_13_67" x1="72" y1="2464.88" x2="72" y2="2479.46" gradientUnits="userSpaceOnUse">
<stop stop-color="#381C0B"/>
<stop offset="1" stop-color="#9E4E20" stop-opacity="0.56"/>
</linearGradient>
<linearGradient id="paint12_linear_13_67" x1="72" y1="2464.88" x2="72" y2="2479.46" gradientUnits="userSpaceOnUse">
<stop stop-color="#381C0B"/>
<stop offset="1" stop-color="#9E4E20" stop-opacity="0.56"/>
</linearGradient>
<linearGradient id="paint13_linear_13_67" x1="69.25" y1="1513.12" x2="69.25" y2="2275.88" gradientUnits="userSpaceOnUse">
<stop stop-color="#4D2A16" stop-opacity="0"/>
<stop offset="0.505" stop-color="#B36234"/>
<stop offset="1" stop-color="#512C17" stop-opacity="0"/>
</linearGradient>
<linearGradient id="paint14_linear_13_67" x1="2601" y1="1323" x2="2601" y2="1308.42" gradientUnits="userSpaceOnUse">
<stop stop-color="#381C0B"/>
<stop offset="1" stop-color="#9E4E20" stop-opacity="0.56"/>
</linearGradient>
<linearGradient id="paint15_linear_13_67" x1="2601" y1="1323" x2="2601" y2="1308.42" gradientUnits="userSpaceOnUse">
<stop stop-color="#381C0B"/>
<stop offset="1" stop-color="#9E4E20" stop-opacity="0.56"/>
</linearGradient>
<linearGradient id="paint16_linear_13_67" x1="2601" y1="1323" x2="2601" y2="1308.42" gradientUnits="userSpaceOnUse">
<stop stop-color="#381C0B"/>
<stop offset="1" stop-color="#9E4E20" stop-opacity="0.56"/>
</linearGradient>
<linearGradient id="paint17_linear_13_67" x1="2601" y1="1323" x2="2601" y2="1308.42" gradientUnits="userSpaceOnUse">
<stop stop-color="#381C0B"/>
<stop offset="1" stop-color="#9E4E20" stop-opacity="0.56"/>
</linearGradient>
<linearGradient id="paint18_linear_13_67" x1="2601" y1="1323" x2="2601" y2="1308.42" gradientUnits="userSpaceOnUse">
<stop stop-color="#381C0B"/>
<stop offset="1" stop-color="#9E4E20" stop-opacity="0.56"/>
</linearGradient>
<linearGradient id="paint19_linear_13_67" x1="2601" y1="1323" x2="2601" y2="1308.42" gradientUnits="userSpaceOnUse">
<stop stop-color="#381C0B"/>
<stop offset="1" stop-color="#9E4E20" stop-opacity="0.56"/>
</linearGradient>
<linearGradient id="paint20_linear_13_67" x1="2601" y1="2463.75" x2="2601" y2="2478.33" gradientUnits="userSpaceOnUse">
<stop stop-color="#381C0B"/>
<stop offset="1" stop-color="#9E4E20" stop-opacity="0.56"/>
</linearGradient>
<linearGradient id="paint21_linear_13_67" x1="2601" y1="2463.75" x2="2601" y2="2478.33" gradientUnits="userSpaceOnUse">
<stop stop-color="#381C0B"/>
<stop offset="1" stop-color="#9E4E20" stop-opacity="0.56"/>
</linearGradient>
<linearGradient id="paint22_linear_13_67" x1="2601" y1="2463.75" x2="2601" y2="2478.33" gradientUnits="userSpaceOnUse">
<stop stop-color="#381C0B"/>
<stop offset="1" stop-color="#9E4E20" stop-opacity="0.56"/>
</linearGradient>
<linearGradient id="paint23_linear_13_67" x1="2601" y1="2463.75" x2="2601" y2="2478.33" gradientUnits="userSpaceOnUse">
<stop stop-color="#381C0B"/>
<stop offset="1" stop-color="#9E4E20" stop-opacity="0.56"/>
</linearGradient>
<linearGradient id="paint24_linear_13_67" x1="2601" y1="2463.75" x2="2601" y2="2478.33" gradientUnits="userSpaceOnUse">
<stop stop-color="#381C0B"/>
<stop offset="1" stop-color="#9E4E20" stop-opacity="0.56"/>
</linearGradient>
<linearGradient id="paint25_linear_13_67" x1="2601" y1="2463.75" x2="2601" y2="2478.33" gradientUnits="userSpaceOnUse">
<stop stop-color="#381C0B"/>
<stop offset="1" stop-color="#9E4E20" stop-opacity="0.56"/>
</linearGradient>
<linearGradient id="paint26_linear_13_67" x1="2593.75" y1="1512" x2="2593.75" y2="2274.75" gradientUnits="userSpaceOnUse">
<stop stop-color="#4D2A16" stop-opacity="0"/>
<stop offset="0.505" stop-color="#B36234"/>
<stop offset="1" stop-color="#512C17" stop-opacity="0"/>
</linearGradient>
<clipPath id="clip0_13_67">
<rect width="2673" height="3780" fill="white"/>
</clipPath>
</defs>
</svg>
